<svg width="24" height="25" viewBox="0 0 24 25" fill="none" xmlns="http://www.w3.org/2000/svg">
<g id="vuesax/bold/shopping-cart">
<g id="shopping-cart">
<path id="Vector" d="M16.25 23C17.2165 23 18 22.2165 18 21.25C18 20.2835 17.2165 19.5 16.25 19.5C15.2835 19.5 14.5 20.2835 14.5 21.25C14.5 22.2165 15.2835 23 16.25 23Z" fill="white"/>
<path id="Vector_2" d="M8.25 23C9.2165 23 10 22.2165 10 21.25C10 20.2835 9.2165 19.5 8.25 19.5C7.2835 19.5 6.5 20.2835 6.5 21.25C6.5 22.2165 7.2835 23 8.25 23Z" fill="white"/>
<path id="Vector_3" d="M4.84 4.44L4.64 6.89C4.6 7.36 4.97 7.75 5.44 7.75H20.75C21.17 7.75 21.52 7.43 21.55 7.01C21.68 5.24 20.33 3.8 18.56 3.8H6.27C6.17 3.36 5.97 2.94 5.66 2.59C5.16 2.06 4.46 1.75 3.74 1.75H2C1.59 1.75 1.25 2.09 1.25 2.5C1.25 2.91 1.59 3.25 2 3.25H3.74C4.05 3.25 4.34 3.38 4.55 3.6C4.76 3.83 4.86 4.13 4.84 4.44Z" fill="white"/>
<path id="Vector_4" d="M20.5101 9.25H5.17005C4.75005 9.25 4.41005 9.57 4.37005 9.98L4.01005 14.33C3.87005 16.04 5.21005 17.5 6.92005 17.5H18.0401C19.5401 17.5 20.8601 16.27 20.9701 14.77L21.3001 10.1C21.3401 9.64 20.9801 9.25 20.5101 9.25Z" fill="white"/>
</g>
</g>
</svg>
